<svg xmlns="http://www.w3.org/2000/svg" viewBox="0 0 885.0 397.4" width="885" height="397">
<g transform="translate(70.00,238.00) scale(0.24103,-0.24103)" fill="#122A52">
<path d="M219.40045166015625 0.0V569.2007446289062H9.40008544921875V697.0H573.3999633789062V569.2007446289062H364.39959716796875V0.0Z"/>
<path d="M634.000244140625 0.0V697.0H871.5997924804688Q957.9996948242188 697.0 1010.5996704101562 671.9000244140625Q1063.1996459960938 646.800048828125 1087.399658203125 600.8000793457031Q1111.5996704101562 554.8001098632812 1111.5996704101562 493.0001220703125Q1111.5996704101562 394.00030517578125 1055.1997680664062 341.100341796875Q998.7998657226562 288.20037841796875 895.7999877929688 282.40032958984375Q870.400146484375 282.2003173828125 845.4002075195312 282.2003173828125Q820.4002685546875 282.2003173828125 804.4002075195312 282.2003173828125H777.1994018554688V0.0ZM1008.8004760742188 0.0 835.8003540039062 298.000244140625 982.5994873046875 315.400146484375 1174.5994873046875 0.0ZM777.1994018554688 409.799560546875H856.9998779296875Q886.2001342773438 409.799560546875 911.4002685546875 415.7996520996094Q936.6004028320312 421.79974365234375 952.5004577636719 439.3998718261719Q968.4005126953125 457.0 968.4005126953125 491.20013427734375Q968.4005126953125 525.6002807617188 952.5004577636719 542.3004150390625Q936.6004028320312 559.0005493164062 911.3002624511719 564.1006469726562Q886.0001220703125 569.2007446289062 856.9998779296875 569.2007446289062H777.1994018554688Z"/>
<path d="M1801.000244140625 0.0V697.0H1947.5994262695312L2262.2000732421875 187.598876953125H2225.4003295898438V697.0H2368.5994873046875V0.0H2220.80029296875L1908.1996459960938 510.401123046875H1944.1994018554688V0.0Z"/>
<path d="M2483.000244140625 0.0V697.0H2689.6000366210938Q2863.7999877929688 697.0 2959.3999633789062 604.8999938964844Q3054.9999389648438 512.7999877929688 3054.9999389648438 343.0Q3054.9999389648438 177.0 2960.7999572753906 88.5Q2866.5999755859375 0.0 2688.6000366210938 0.0ZM2626.1994018554688 131.39923095703125H2674.2001342773438Q2748.8003540039062 131.39923095703125 2801.7005004882812 149.49935913085938Q2854.6006469726562 167.5994873046875 2882.700714111328 214.899658203125Q2910.80078125 262.1998291015625 2910.80078125 348.39996337890625Q2910.80078125 432.20013427734375 2883.9006958007812 479.7003173828125Q2857.0006103515625 527.2005004882812 2806.9004516601562 546.400634765625Q2756.80029296875 565.6007690429688 2687.0000610351562 565.6007690429688H2626.1994018554688Z"/>
</g>
<rect x="368.40" y="70.00" width="112.37" height="23.52" rx="11.76" fill="#1E4FA3"/>
<rect x="368.40" y="142.24" width="98.89" height="23.52" rx="11.76" fill="#1E4FA3"/>
<rect x="368.40" y="214.48" width="112.37" height="23.52" rx="11.76" fill="#1E4FA3"/>
<g transform="translate(196.66,342.16) scale(0.07036,-0.07036)" fill="#1E4FA3"><path d="M141.1002197265625 -275.0Q106.3001708984375 -275.0 88.4000244140625 -260.9249572753906Q70.4998779296875 -246.84991455078125 72.84991455078125 -225.54974365234375Q74.74993896484375 -211.84967041015625 85.77499389648438 -202.899658203125Q96.800048828125 -193.94964599609375 112.25006103515625 -193.94964599609375Q130.400146484375 -193.94964599609375 137.52517700195312 -203.24969482421875Q144.65020751953125 -212.54974365234375 147.65020751953125 -225.02481079101562Q150.65020751953125 -237.4998779296875 154.97518920898438 -246.7999267578125Q159.3001708984375 -256.0999755859375 171.3001708984375 -256.0999755859375Q181.95013427734375 -256.0999755859375 189.15008544921875 -240.64996337890625Q196.35003662109375 -225.199951171875 204.72500610351562 -180.42495727539062Q213.0999755859375 -135.64996337890625 226.0999755859375 -47.0L293.64996337890625 418.0Q311.64996337890625 540.0 335.95001220703125 606.5Q360.25006103515625 673.0 396.4751892089844 699.5Q432.7003173828125 726.0 485.25054931640625 726.0Q524.4505004882812 726.0 541.8505249023438 710.2749938964844Q559.2505493164062 694.5499877929688 556.800537109375 673.199951171875Q555.3505249023438 658.6998291015625 545.4754333496094 649.3497924804688Q535.600341796875 639.999755859375 521.2503051757812 639.999755859375Q500.45025634765625 639.999755859375 493.6002197265625 650.3997802734375Q486.75018310546875 660.7998046875 485.0251770019531 674.9248352050781Q483.3001708984375 689.0498657226562 479.4751892089844 699.4498901367188Q475.65020751953125 709.8499145507812 460.9002685546875 709.8499145507812Q426.15032958984375 709.8499145507812 402.7253723144531 643.1748962402344Q379.3004150390625 576.4998779296875 359.200439453125 439.0L291.200439453125 -21.0Q277.200439453125 -116.45001220703125 258.5754089355469 -172.22500610351562Q239.95037841796875 -228.0 211.87533569335938 -251.5Q183.80029296875 -275.0 141.1002197265625 -275.0ZM114.3001708984375 -13.0Q65.15008544921875 -13.0 39.675018310546875 40.175018310546875Q14.199951171875 93.35003662109375 30.199951171875 185.85015869140625Q43.74993896484375 261.7000732421875 77.24993896484375 308.5750427246094Q110.74993896484375 355.45001220703125 149.74993896484375 377.2250061035156Q188.74993896484375 399.0 218.199951171875 399.0Q241.199951171875 399.0 266.6250305175781 381.5Q292.05010986328125 364.0 310.75018310546875 314.0999755859375L295.75018310546875 276.45001220703125Q284.75018310546875 320.800048828125 261.3752136230469 349.45001220703125Q238.000244140625 378.0999755859375 209.5003662109375 378.0999755859375Q173.55047607421875 378.0999755859375 145.07553100585938 331.2999267578125Q116.6005859375 284.4998779296875 102.6005859375 204.94989013671875Q86.6005859375 116.04986572265625 100.65045166015625 68.24993896484375Q114.7003173828125 20.45001220703125 148.85015869140625 20.45001220703125Q179.5001220703125 20.45001220703125 209.05010986328125 44.374969482421875Q238.60009765625 68.2999267578125 260.15008544921875 93.39990234375L268.75018310546875 82.14984130859375Q220.5001220703125 30.14984130859375 181.900146484375 8.574920654296875Q143.3001708984375 -13.0 114.3001708984375 -13.0ZM364.1004638671875 -13.0Q342.1004638671875 -13.0 316.6753845214844 4.5Q291.25030517578125 22.0 272.1002197265625 71.9000244140625L287.65020751953125 109.54998779296875Q298.65020751953125 65.199951171875 321.7001953125 36.54998779296875Q344.75018310546875 7.9000244140625 372.800048828125 7.9000244140625Q409.74993896484375 7.9000244140625 438.2248840332031 54.975067138671875Q466.6998291015625 102.05010986328125 480.6998291015625 181.05010986328125Q496.6998291015625 270.5001220703125 482.4249572753906 318.0250549316406Q468.15008544921875 365.54998779296875 435.000244140625 365.54998779296875Q403.35028076171875 365.54998779296875 374.0752868652344 341.6250305175781Q344.80029296875 317.7000732421875 322.7003173828125 292.60009765625L314.1002197265625 303.85015869140625Q362.35028076171875 356.400146484375 400.6752624511719 377.7000732421875Q439.000244140625 399.0 469.000244140625 399.0Q518.7003173828125 399.0 543.900390625 346.0999755859375Q569.1004638671875 293.199951171875 552.6504516601562 200.14984130859375Q539.1004638671875 124.74993896484375 505.55047607421875 77.64996337890625Q472.00048828125 30.54998779296875 433.2754821777344 8.774993896484375Q394.55047607421875 -13.0 364.1004638671875 -13.0ZM736.2500610351562 -14.0Q686.199951171875 -14.0 654.7999267578125 14.175018310546875Q623.39990234375 42.35003662109375 612.5749206542969 89.35003662109375Q601.7499389648438 136.35003662109375 612.2999267578125 193.0Q623.7499389648438 252.35003662109375 654.9249572753906 298.85003662109375Q686.0999755859375 345.35003662109375 730.7250061035156 372.1750183105469Q775.3500366210938 399.0 826.1500854492188 399.0Q879.400146484375 399.0 911.3001708984375 370.95001220703125Q943.2001953125 342.9000244140625 953.6502075195312 296.1250305175781Q964.1002197265625 249.35003662109375 952.6502075195312 193.0Q940.2001953125 128.2999267578125 906.0751647949219 81.52493286132812Q871.9501342773438 34.74993896484375 827.0501098632812 10.374969482421875Q782.1500854492188 -14.0 736.2500610351562 -14.0ZM770.800048828125 11.0Q809.39990234375 11.0 840.3247375488281 47.675018310546875Q871.2495727539062 84.35003662109375 882.799560546875 149.0Q890.2495727539062 188.5001220703125 888.6495971679688 228.17514038085938Q887.0496215820312 267.85015869140625 876.1246643066406 301.2251281738281Q865.19970703125 334.60009765625 845.0747985839844 354.800048828125Q824.9498901367188 375.0 795.3500366210938 375.0Q758.000244140625 375.0 726.5754089355469 338.800048828125Q695.1505737304688 302.60009765625 682.1505737304688 236.0Q674.1505737304688 195.39990234375 676.2505493164062 155.4998779296875Q678.3505249023438 115.599853515625 689.6004638671875 82.94989013671875Q700.8504028320312 50.2999267578125 721.5252990722656 30.64996337890625Q742.2001953125 11.0 770.800048828125 11.0ZM921.599853515625 -275.0Q918.0498657226562 -276.0 916.8248596191406 -270.0Q915.599853515625 -264.0 919.599853515625 -263.0Q941.2498168945312 -258.54998779296875 951.8497924804688 -252.32498168945312Q962.4497680664062 -246.0999755859375 967.999755859375 -230.5999755859375Q973.5497436523438 -215.0999755859375 978.5497436523438 -185.0L1080.5497436523438 386.0Q1080.5497436523438 389.0 1089.2498168945312 395.2250061035156Q1097.9498901367188 401.45001220703125 1109.7749938964844 410.9000244140625Q1121.60009765625 420.35003662109375 1131.5251770019531 433.0250549316406Q1141.4502563476562 445.7000732421875 1144.9002685546875 460.7000732421875Q1146.3502807617188 464.7000732421875 1151.6252746582031 463.7000732421875Q1156.9002685546875 462.7000732421875 1155.9002685546875 458.7000732421875L1042.9002685546875 -178.0Q1035.9002685546875 -218.0999755859375 1046.7752380371094 -229.74993896484375Q1057.6502075195312 -241.39990234375 1097.0501098632812 -236.2999267578125Q1101.0501098632812 -235.199951171875 1102.7751159667969 -240.74993896484375Q1104.5001220703125 -246.2999267578125 1099.5001220703125 -247.2999267578125ZM1127.0 -1Q1093.7501831054688 -1.0 1073.3750915527344 2.0Q1053.0 5 1039.0 8L1049.0 63.400146484375Q1068.9000244140625 49.05010986328125 1094.5250549316406 38.475067138671875Q1120.1500854492188 27.9000244140625 1157.9501342773438 27.9000244140625Q1199.0999755859375 27.9000244140625 1227.3248596191406 53.125030517578125Q1255.5497436523438 78.35003662109375 1273.0746765136719 121.9000244140625Q1290.599609375 165.45001220703125 1297.1495971679688 220.0Q1301.6995849609375 253.64996337890625 1297.299560546875 283.84991455078125Q1292.8995361328125 314.04986572265625 1274.6745300292969 333.4248352050781Q1256.4495239257812 352.7998046875 1216.6995849609375 352.7998046875Q1171.0496215820312 352.7998046875 1124.3246154785156 327.7248840332031Q1077.599609375 302.64996337890625 1017.399658203125 257.25006103515625Q1013.9496459960938 254.9000244140625 1010.1746520996094 259.6250305175781Q1006.399658203125 264.35003662109375 1009.8496704101562 266.7000732421875Q1071.0997314453125 319.7000732421875 1137.4748229980469 356.35003662109375Q1203.8499145507812 393.0 1267.0 393Q1324.2500610351562 393.0 1349.1500854492188 357.0Q1374.0501098632812 321.0 1364.0501098632812 253.0Q1357.0501098632812 202.0 1334.10009765625 156.0Q1311.1500854492188 110.0 1278.2000732421875 74.5Q1245.2500610351562 39.0 1206.0750427246094 19.0Q1166.9000244140625 -1.0 1127.0 -1ZM1835.0 -9Q1807.8499145507812 -9.0 1800.7999267578125 12.95001220703125Q1793.7499389648438 34.9000244140625 1794.7499389648438 83.599853515625L1801.199951171875 341.2996826171875L1832.7000732421875 372.599853515625L1647.8501586914062 4.94989013671875Q1646.400146484375 1.4998779296875 1639.0501098632812 2.04986572265625Q1631.7000732421875 2.599853515625 1630.7000732421875 6.599853515625L1565.199951171875 304.0Q1558.6499633789062 332.74993896484375 1548.5999755859375 347.34991455078125Q1538.5499877929688 361.94989013671875 1520.0 361.94989013671875Q1510.5499877929688 361.94989013671875 1500.8749694824219 358.2748718261719Q1491.199951171875 354.599853515625 1482.199951171875 345.599853515625Q1478.6499633789062 342.04986572265625 1473.9249572753906 345.3248596191406Q1469.199951171875 348.599853515625 1473.199951171875 352.599853515625Q1493.0 372.39990234375 1515.2000732421875 382.699951171875Q1537.400146484375 393.0 1560.9002685546875 393.0Q1584.0503540039062 393.0 1600.6253967285156 379.7250061035156Q1617.200439453125 366.45001220703125 1623.200439453125 337.0999755859375L1676.0503540039062 76.400390625L1644.8501586914062 39.45001220703125L1810.0501098632812 369.15008544921875Q1815.7000732421875 380.45001220703125 1822.0001220703125 384.45001220703125Q1828.3001708984375 388.45001220703125 1843.4502563476562 388.45001220703125Q1856.8504028320312 388.45001220703125 1861.2504272460938 384.7250061035156Q1865.6504516601562 381.0 1865.6504516601562 372.45001220703125L1857.200439453125 89.0Q1856.200439453125 62.25006103515625 1860.6004638671875 50.3001708984375Q1865.00048828125 38.35028076171875 1879.9503784179688 38.35028076171875Q1892.600341796875 38.35028076171875 1904.5503540039062 47.05023193359375Q1916.5003662109375 55.75018310546875 1938.5502319335938 77.25006103515625Q1940.2001953125 79.45001220703125 1945.3252258300781 75.85003662109375Q1950.4502563476562 72.25006103515625 1947.000244140625 68.800048828125Q1909.2001953125 31.0 1885.7751159667969 11.0Q1862.3500366210938 -9.0 1835.0 -9ZM1421.2001953125 -9.0Q1399.800048828125 -9.0 1389.5 2.475067138671875Q1379.199951171875 13.95013427734375 1381.6499633789062 31.1002197265625Q1384.199951171875 47.35028076171875 1395.0 54.325347900390625Q1405.800048828125 61.3004150390625 1424.6502075195312 61.3004150390625Q1445.5001220703125 61.3004150390625 1462.4750671386719 75.67526245117188Q1479.4500122070312 90.05010986328125 1495.0 124.14996337890625Q1510.5499877929688 158.24981689453125 1527.1750183105469 217.12478637695312Q1543.800048828125 275.999755859375 1564.5001220703125 365.0L1581.9501342773438 361.0Q1557.9501342773438 255.35003662109375 1539.900146484375 184.07504272460938Q1521.8501586914062 112.800048828125 1505.2501831054688 70.35003662109375Q1488.6502075195312 27.9000244140625 1468.8752136230469 9.45001220703125Q1449.1002197265625 -9.0 1421.2001953125 -9.0ZM1940.800048828125 -281.0Q1920.2999267578125 -281.0 1906.1998291015625 -270.4249572753906Q1892.0997314453125 -259.84991455078125 1895.4497680664062 -233.64971923828125Q1902.3497924804688 -200.84942626953125 1940.800048828125 -200.84942626953125Q1961.800048828125 -200.84942626953125 1981.2749938964844 -203.1995849609375Q2000.7499389648438 -205.54974365234375 2019.8499145507812 -202.94989013671875Q2038.9498901367188 -200.35003662109375 2058.0999755859375 -187.0999755859375Q2080.0999755859375 -172.0999755859375 2109.5499877929688 -135.5999755859375Q2139.0 -99.0999755859375 2171.0 -52.04998779296875Q2203.0 -5 2231.7749938964844 44.374969482421875Q2260.5499877929688 93.74993896484375 2281.0999755859375 136.27487182617188Q2301.6499633789062 178.7998046875 2307.7499389648438 204.74969482421875Q2315.0999755859375 235.7998046875 2312.524932861328 258.94976806640625Q2309.9498901367188 282.0997314453125 2302.924835205078 299.399658203125Q2295.8997802734375 316.6995849609375 2289.6497192382812 330.5245666503906Q2283.399658203125 344.34954833984375 2283.399658203125 357.64971923828125Q2283.399658203125 374.599853515625 2294.999755859375 385.2999267578125Q2306.599853515625 396.0 2326.0 396Q2348.2500610351562 396.0 2358.400146484375 380.14996337890625Q2368.5502319335938 364.2999267578125 2368.5502319335938 336.44976806640625Q2368.5502319335938 301.6998291015625 2352.6002197265625 251.82485961914062Q2336.6502075195312 201.94989013671875 2308.7001953125 143.57492065429688Q2280.7501831054688 85.199951171875 2244.8501586914062 25.64996337890625Q2208.9501342773438 -33.9000244140625 2168.775115966797 -88.95001220703125Q2128.60009765625 -144.0 2087.425079345703 -187.22500610351562Q2046.2500610351562 -230.45001220703125 2008.5250549316406 -255.72500610351562Q1970.800048828125 -281.0 1940.800048828125 -281.0ZM2134.6497192382812 -120.15032958984375Q2140.19970703125 103.8997802734375 2110.2747497558594 225.57479858398438Q2080.3497924804688 347.24981689453125 2025.39990234375 347.24981689453125Q2012.39990234375 347.24981689453125 1999.2999267578125 338.7998046875Q1986.199951171875 330.34979248046875 1976.5499877929688 312.39990234375Q1974.5499877929688 308.39990234375 1969.0499877929688 309.89990234375Q1963.5499877929688 311.39990234375 1964.5499877929688 315.39990234375Q1983.0999755859375 353.39990234375 2010.1251525878906 374.199951171875Q2037.1503295898438 395.0 2064.600341796875 395.0Q2099.2503051757812 395.0 2125.625274658203 361.4000244140625Q2152.000244140625 327.800048828125 2168.825225830078 269.15008544921875Q2185.6502075195312 210.5001220703125 2192.2001953125 134.02517700195312Q2198.7501831054688 57.55023193359375 2193.7501831054688 -29.19970703125ZM2650.400146484375 167.84991455078125Q2639.7000732421875 167.84991455078125 2622.5750427246094 171.7999267578125Q2605.4500122070312 175.74993896484375 2571.2250061035156 179.47494506835938Q2537.0 183.199951171875 2473.0 183.199951171875V204.45001220703125Q2537.0 204.45001220703125 2572.2250061035156 207.4000244140625Q2607.4500122070312 210.35003662109375 2625.0750427246094 213.300048828125Q2642.7000732421875 216.25006103515625 2652.400146484375 216.25006103515625Q2666.8501586914062 216.25006103515625 2672.3001708984375 207.4000244140625Q2677.7501831054688 198.54998779296875 2675.7501831054688 189.199951171875Q2674.3001708984375 180.74993896484375 2667.575164794922 174.2999267578125Q2660.8501586914062 167.84991455078125 2650.400146484375 167.84991455078125ZM2561.800048828125 -13.0Q2518.4500122070312 -13.0 2490.5 6.274993896484375Q2462.5499877929688 25.54998779296875 2448.374969482422 57.0999755859375Q2434.199951171875 88.64996337890625 2431.7499389648438 126.64996337890625Q2429.2999267578125 164.64996337890625 2436.8499145507812 202.0Q2449.4998779296875 264.199951171875 2484.1748962402344 307.9249572753906Q2518.8499145507812 351.64996337890625 2564.6499633789062 375.3249816894531Q2610.4500122070312 399.0 2654.2500610351562 399.0Q2677.800048828125 399.0 2698.7000732421875 391.95001220703125Q2719.60009765625 384.9000244140625 2732.1751403808594 371.0Q2744.7501831054688 357.0999755859375 2742.7501831054688 337.4998779296875Q2741.7501831054688 322.44976806640625 2732.10009765625 311.8747253417969Q2722.4500122070312 301.2996826171875 2704.39990234375 301.2996826171875Q2686.19970703125 301.2996826171875 2677.024688720703 311.94976806640625Q2667.8496704101562 322.599853515625 2663.7496948242188 337.4998779296875Q2660.2996826171875 350.2999267578125 2649.999755859375 362.84991455078125Q2639.6998291015625 375.39990234375 2616.2999267578125 375.39990234375Q2587.5001220703125 375.39990234375 2565.6002197265625 356.4749450683594Q2543.7003173828125 337.54998779296875 2529.775360107422 305.9000244140625Q2515.8504028320312 274.25006103515625 2508.3004150390625 234.25006103515625Q2498.7504272460938 179.25006103515625 2505.2504272460938 131.60009765625Q2511.7504272460938 83.95013427734375 2537.3504028320312 55.025177001953125Q2562.9503784179688 26.1002197265625 2609.600341796875 26.1002197265625Q2639.400146484375 26.1002197265625 2665.1751403808594 38.900146484375Q2690.9501342773438 51.7000732421875 2710.2500610351562 67.0Q2712.800048828125 69.0 2716.800048828125 65.0Q2720.800048828125 61.0 2718.2500610351562 58.0Q2678.5001220703125 21.0 2638.6500854492188 4.0Q2598.800048828125 -13.0 2561.800048828125 -13.0ZM3197.0 -9Q3169.8499145507812 -9.0 3162.7999267578125 12.95001220703125Q3155.7499389648438 34.9000244140625 3156.7499389648438 83.599853515625L3163.199951171875 341.2996826171875L3194.7000732421875 372.599853515625L3009.8501586914062 4.94989013671875Q3008.400146484375 1.4998779296875 3001.0501098632812 2.04986572265625Q2993.7000732421875 2.599853515625 2992.7000732421875 6.599853515625L2927.199951171875 304.0Q2920.6499633789062 332.74993896484375 2910.5999755859375 347.34991455078125Q2900.5499877929688 361.94989013671875 2882.0 361.94989013671875Q2872.5499877929688 361.94989013671875 2862.874969482422 358.2748718261719Q2853.199951171875 354.599853515625 2844.199951171875 345.599853515625Q2840.6499633789062 342.04986572265625 2835.9249572753906 345.3248596191406Q2831.199951171875 348.599853515625 2835.199951171875 352.599853515625Q2855.0 372.39990234375 2877.2000732421875 382.699951171875Q2899.400146484375 393.0 2922.9002685546875 393.0Q2946.0503540039062 393.0 2962.6253967285156 379.7250061035156Q2979.200439453125 366.45001220703125 2985.200439453125 337.0999755859375L3038.0503540039062 76.400390625L3006.8501586914062 39.45001220703125L3172.0501098632812 369.15008544921875Q3177.7000732421875 380.45001220703125 3184.0001220703125 384.45001220703125Q3190.3001708984375 388.45001220703125 3205.4502563476562 388.45001220703125Q3218.8504028320312 388.45001220703125 3223.2504272460938 384.7250061035156Q3227.6504516601562 381.0 3227.6504516601562 372.45001220703125L3219.200439453125 89.0Q3218.200439453125 62.25006103515625 3222.6004638671875 50.3001708984375Q3227.00048828125 38.35028076171875 3241.9503784179688 38.35028076171875Q3254.600341796875 38.35028076171875 3266.5503540039062 47.05023193359375Q3278.5003662109375 55.75018310546875 3300.5502319335938 77.25006103515625Q3302.2001953125 79.45001220703125 3307.325225830078 75.85003662109375Q3312.4502563476562 72.25006103515625 3309.000244140625 68.800048828125Q3271.2001953125 31.0 3247.775115966797 11.0Q3224.3500366210938 -9.0 3197.0 -9ZM2783.2001953125 -9.0Q2761.800048828125 -9.0 2751.5 2.475067138671875Q2741.199951171875 13.95013427734375 2743.6499633789062 31.1002197265625Q2746.199951171875 47.35028076171875 2757.0 54.325347900390625Q2767.800048828125 61.3004150390625 2786.6502075195312 61.3004150390625Q2807.5001220703125 61.3004150390625 2824.475067138672 75.67526245117188Q2841.4500122070312 90.05010986328125 2857.0 124.14996337890625Q2872.5499877929688 158.24981689453125 2889.175018310547 217.12478637695312Q2905.800048828125 275.999755859375 2926.5001220703125 365.0L2943.9501342773438 361.0Q2919.9501342773438 255.35003662109375 2901.900146484375 184.07504272460938Q2883.8501586914062 112.800048828125 2867.2501831054688 70.35003662109375Q2850.6502075195312 27.9000244140625 2830.875213623047 9.45001220703125Q2811.1002197265625 -9.0 2783.2001953125 -9.0ZM3475.2500610351562 -14.0Q3425.199951171875 -14.0 3393.7999267578125 14.175018310546875Q3362.39990234375 42.35003662109375 3351.574920654297 89.35003662109375Q3340.7499389648438 136.35003662109375 3351.2999267578125 193.0Q3362.7499389648438 252.35003662109375 3393.9249572753906 298.85003662109375Q3425.0999755859375 345.35003662109375 3469.7250061035156 372.1750183105469Q3514.3500366210938 399.0 3565.1500854492188 399.0Q3618.400146484375 399.0 3650.3001708984375 370.95001220703125Q3682.2001953125 342.9000244140625 3692.6502075195312 296.1250305175781Q3703.1002197265625 249.35003662109375 3691.6502075195312 193.0Q3679.2001953125 128.2999267578125 3645.075164794922 81.52493286132812Q3610.9501342773438 34.74993896484375 3566.0501098632812 10.374969482421875Q3521.1500854492188 -14.0 3475.2500610351562 -14.0ZM3509.800048828125 11.0Q3548.39990234375 11.0 3579.324737548828 47.675018310546875Q3610.2495727539062 84.35003662109375 3621.799560546875 149.0Q3629.2495727539062 188.5001220703125 3627.6495971679688 228.17514038085938Q3626.0496215820312 267.85015869140625 3615.1246643066406 301.2251281738281Q3604.19970703125 334.60009765625 3584.0747985839844 354.800048828125Q3563.9498901367188 375.0 3534.3500366210938 375.0Q3497.000244140625 375.0 3465.575408935547 338.800048828125Q3434.1505737304688 302.60009765625 3421.1505737304688 236.0Q3413.1505737304688 195.39990234375 3415.2505493164062 155.4998779296875Q3417.3505249023438 115.599853515625 3428.6004638671875 82.94989013671875Q3439.8504028320312 50.2999267578125 3460.5252990722656 30.64996337890625Q3481.2001953125 11.0 3509.800048828125 11.0ZM3894.599853515625 -275.0Q3891.0498657226562 -276.0 3889.8248596191406 -270.0Q3888.599853515625 -264.0 3892.599853515625 -263.0Q3914.2498168945312 -258.54998779296875 3924.8497924804688 -252.32498168945312Q3935.4497680664062 -246.0999755859375 3940.999755859375 -230.5999755859375Q3946.5497436523438 -215.0999755859375 3951.5497436523438 -185.0L4053.5497436523438 386.0Q4053.5497436523438 389.0 4062.2498168945312 395.2250061035156Q4070.9498901367188 401.45001220703125 4082.7749938964844 410.9000244140625Q4094.60009765625 420.35003662109375 4104.525177001953 433.0250549316406Q4114.450256347656 445.7000732421875 4117.9002685546875 460.7000732421875Q4119.350280761719 464.7000732421875 4124.625274658203 463.7000732421875Q4129.9002685546875 462.7000732421875 4128.9002685546875 458.7000732421875L4015.9002685546875 -178.0Q4008.9002685546875 -218.0999755859375 4019.7752380371094 -229.74993896484375Q4030.6502075195312 -241.39990234375 4070.0501098632812 -236.2999267578125Q4074.0501098632812 -235.199951171875 4075.775115966797 -240.74993896484375Q4077.5001220703125 -246.2999267578125 4072.5001220703125 -247.2999267578125ZM4100.0 -1Q4066.7501831054688 -1.0 4046.3750915527344 2.0Q4026.0 5 4012.0 8L4022.0 63.400146484375Q4041.9000244140625 49.05010986328125 4067.5250549316406 38.475067138671875Q4093.1500854492188 27.9000244140625 4130.950134277344 27.9000244140625Q4172.0999755859375 27.9000244140625 4200.324859619141 53.125030517578125Q4228.549743652344 78.35003662109375 4246.074676513672 121.9000244140625Q4263.599609375 165.45001220703125 4270.149597167969 220.0Q4274.6995849609375 253.64996337890625 4270.299560546875 283.84991455078125Q4265.8995361328125 314.04986572265625 4247.674530029297 333.4248352050781Q4229.449523925781 352.7998046875 4189.6995849609375 352.7998046875Q4144.049621582031 352.7998046875 4097.324615478516 327.7248840332031Q4050.599609375 302.64996337890625 3990.399658203125 257.25006103515625Q3986.9496459960938 254.9000244140625 3983.1746520996094 259.6250305175781Q3979.399658203125 264.35003662109375 3982.8496704101562 266.7000732421875Q4044.0997314453125 319.7000732421875 4110.474822998047 356.35003662109375Q4176.849914550781 393.0 4240.0 393Q4297.250061035156 393.0 4322.150085449219 357.0Q4347.050109863281 321.0 4337.050109863281 253.0Q4330.050109863281 202.0 4307.10009765625 156.0Q4284.150085449219 110.0 4251.2000732421875 74.5Q4218.250061035156 39.0 4179.075042724609 19.0Q4139.9000244140625 -1.0 4100.0 -1ZM4469.199951171875 -9.0Q4442.249816894531 -9.0 4433.624786376953 13.25006103515625Q4424.999755859375 35.5001220703125 4435.549743652344 89.0L4476.549743652344 297.0Q4487.649719238281 352.599853515625 4460.449768066406 352.599853515625Q4449.349792480469 352.599853515625 4432.374847412109 341.4998779296875Q4415.39990234375 330.39990234375 4395.199951171875 308.74993896484375Q4391.749938964844 304.74993896484375 4387.474945068359 309.24993896484375Q4383.199951171875 313.74993896484375 4386.749938964844 317.199951171875Q4421.649963378906 357.45001220703125 4449.824981689453 376.2250061035156Q4478.0 395 4504.350036621094 395.0Q4531.950134277344 395.0 4539.750183105469 373.04998779296875Q4547.550231933594 351.0999755859375 4537.9002685546875 302.400146484375L4497.000244140625 89.0Q4491.450256347656 59.35003662109375 4496.450256347656 46.825103759765625Q4501.450256347656 34.3001708984375 4512.2001953125 34.3001708984375Q4523.2001953125 34.3001708984375 4539.5001220703125 45.400146484375Q4555.800048828125 56.5001220703125 4575.0999755859375 75.9000244140625Q4579.0999755859375 79.9000244140625 4583.0999755859375 75.62503051757812Q4587.0999755859375 71.35003662109375 4583.0999755859375 67.9000244140625Q4551.0 30.35003662109375 4523.725006103516 10.675018310546875Q4496.450012207031 -9.0 4469.199951171875 -9.0ZM4527.0 472.44976806640625Q4504.849914550781 472.44976806640625 4492.099853515625 484.6998291015625Q4479.349792480469 496.94989013671875 4479.349792480469 520.0Q4479.349792480469 540.1500854492188 4492.099853515625 552.400146484375Q4504.849914550781 564.6502075195312 4527.0 564.6502075195312Q4549.150085449219 564.6502075195312 4561.175140380859 552.400146484375Q4573.2001953125 540.1500854492188 4573.2001953125 520.0Q4573.2001953125 472.44976806640625 4527.0 472.44976806640625ZM4739.150085449219 395.0Q4767.1002197265625 395.0 4774.175262451172 371.9249572753906Q4781.250305175781 348.84991455078125 4772.150329589844 297.0L4742.7003173828125 138.0Q4733.600341796875 83.95013427734375 4741.2003173828125 57.65020751953125Q4748.80029296875 31.35028076171875 4773.3001708984375 31.35028076171875Q4802.150085449219 31.35028076171875 4834.774993896484 70.87521362304688Q4867.39990234375 110.400146484375 4897.149841308594 187.75006103515625Q4926.8997802734375 265.0999755859375 4945.999755859375 377.2999267578125L4959.599853515625 376.2999267578125Q4940.049865722656 257.599853515625 4905.274871826172 169.9998779296875Q4870.4998779296875 82.39990234375 4826.4998779296875 34.699951171875Q4782.4998779296875 -13.0 4734.4998779296875 -13.0Q4694.949890136719 -13.0 4680.649841308594 18.675018310546875Q4666.349792480469 50.35003662109375 4678.7998046875 119.0L4710.7998046875 297.0Q4715.7998046875 327.0999755859375 4711.2998046875 339.39990234375Q4706.7998046875 351.6998291015625 4696.149841308594 351.6998291015625Q4685.049865722656 351.6998291015625 4669.2999267578125 340.04986572265625Q4653.549987792969 328.39990234375 4634.250061035156 309.0Q4630.250061035156 305.0 4626.250061035156 309.0Q4622.250061035156 313.0 4626.250061035156 317.0Q4658.800048828125 355.0 4685.575042724609 375.0Q4712.350036621094 395.0 4739.150085449219 395.0ZM5205.850158691406 394.0Q5222.550231933594 394.0 5227.125274658203 392.04998779296875Q5231.7003173828125 390.0999755859375 5231.7003173828125 387.0999755859375Q5231.7003173828125 383.64996337890625 5226.975311279297 361.3749694824219Q5222.250305175781 339.0999755859375 5217.250305175781 315.2999267578125L5175.7003173828125 89.0Q5166.150329589844 33.400146484375 5191.80029296875 33.400146484375Q5202.9002685546875 33.400146484375 5219.875213623047 44.5001220703125Q5236.850158691406 55.60009765625 5257.5001220703125 77.25006103515625Q5260.5001220703125 81.25006103515625 5264.775115966797 76.75006103515625Q5269.050109863281 72.25006103515625 5265.5001220703125 68.800048828125Q5231.150085449219 28.54998779296875 5202.925079345703 9.774993896484375Q5174.7000732421875 -9.0 5147.350036621094 -9.0Q5120.2999267578125 -9.0 5112.9998779296875 12.95001220703125Q5105.6998291015625 34.9000244140625 5114.349792480469 83.599853515625L5166.349792480469 377.2999267578125Q5170.7998046875 394.0 5205.850158691406 394.0ZM4984.950134277344 394.0Q5001.650207519531 394.0 5006.225250244141 392.04998779296875Q5010.80029296875 390.0999755859375 5010.80029296875 387.0999755859375Q5010.80029296875 383.64996337890625 5005.525299072266 360.0Q5000.250305175781 336.35003662109375 4995.80029296875 312.0L4963.350280761719 137.0999755859375Q4954.9002685546875 82.60009765625 4962.850280761719 56.975189208984375Q4970.80029296875 31.35028076171875 4994.2001953125 31.35028076171875Q5023.950134277344 31.35028076171875 5056.525054931641 72.000244140625Q5089.0999755859375 112.65020751953125 5118.39990234375 190.22512817382812Q5147.6998291015625 267.800048828125 5166.349792480469 377.2999267578125L5180.4998779296875 376.2999267578125Q5160.949890136719 259.39990234375 5126.624908447266 171.57492065429688Q5092.2999267578125 83.74993896484375 5048.2999267578125 35.374969482421875Q5004.2999267578125 -13.0 4954.949890136719 -13.0Q4916.949890136719 -13.0 4901.924835205078 18.225006103515625Q4886.8997802734375 49.45001220703125 4899.449768066406 118.0999755859375L4945.999755859375 377.2999267578125Q4948.449768066406 394.0 4984.950134277344 394.0ZM5443.7000732421875 -12.0Q5389.0 -12 5357.874969482422 16.175018310546875Q5326.749938964844 44.35003662109375 5317.249938964844 89.35003662109375Q5307.749938964844 134.35003662109375 5317.2999267578125 185.0Q5324.199951171875 222.9000244140625 5344.924957275391 261.1250305175781Q5365.649963378906 299.35003662109375 5396.824981689453 330.4000244140625Q5428.0 361.45001220703125 5467.075042724609 380.2250061035156Q5506.150085449219 399.0 5550.400146484375 399.0Q5588.1002197265625 399.0 5606.675262451172 384.7250061035156Q5625.250305175781 370.45001220703125 5621.600341796875 345.0Q5617.5003662109375 320.64996337890625 5594.325347900391 298.0249328613281Q5571.150329589844 275.39990234375 5533.850280761719 257.2248840332031Q5496.550231933594 239.04986572265625 5450.8001708984375 226.099853515625Q5405.050109863281 213.14984130859375 5356.7000732421875 207.599853515625L5358.7000732421875 220.599853515625Q5433.549987792969 231.599853515625 5484.574920654297 256.54986572265625Q5535.599853515625 281.4998779296875 5544.249816894531 324.0Q5550.449768066406 349.2999267578125 5536.724884033203 360.64996337890625Q5523.0 372 5503.350036621094 372.0Q5473.2001953125 372.0 5450.025299072266 351.2250061035156Q5426.850402832031 330.45001220703125 5411.700439453125 295.45001220703125Q5396.550476074219 260.45001220703125 5389.550476074219 218.0Q5379.9005126953125 163.7000732421875 5387.725494384766 120.32510375976562Q5395.550476074219 76.95013427734375 5420.925445556641 51.175140380859375Q5446.3004150390625 25.400146484375 5488.400390625 25.400146484375Q5510.7003173828125 25.400146484375 5536.30029296875 32.400146484375Q5561.9002685546875 39.400146484375 5585.550231933594 57.5001220703125Q5588.1002197265625 59.5001220703125 5591.6002197265625 55.5001220703125Q5595.1002197265625 51.5001220703125 5592.550231933594 48.95013427734375Q5554.550231933594 15.800048828125 5517.075164794922 1.9000244140625Q5479.60009765625 -12.0 5443.7000732421875 -12.0ZM5715.649963378906 -8.0Q5699.949890136719 -8.0 5694.599853515625 -6.04998779296875Q5689.249816894531 -4.0999755859375 5689.249816894531 -1.0999755859375Q5689.249816894531 2.35003662109375 5694.749816894531 25.175018310546875Q5700.249816894531 48.0 5704.249816894531 74.0L5745.249816894531 297.0Q5754.7998046875 352.599853515625 5729.149841308594 352.599853515625Q5718.049865722656 352.599853515625 5701.074920654297 341.4998779296875Q5684.0999755859375 330.39990234375 5663.450012207031 308.74993896484375Q5660.450012207031 304.74993896484375 5656.175018310547 309.24993896484375Q5651.9000244140625 313.74993896484375 5655.450012207031 317.199951171875Q5689.800048828125 357.45001220703125 5718.525054931641 376.2250061035156Q5747.250061035156 395.0 5773.60009765625 395.0Q5800.650207519531 395.0 5808.175262451172 373.04998779296875Q5815.7003173828125 351.0999755859375 5806.600341796875 302.400146484375L5755.150329589844 8.7000732421875Q5751.80029296875 -8.0 5715.649963378906 -8.0ZM5754.250061035156 182.64996337890625 5757.800048828125 203.35003662109375H5993.2001953125L5990.2001953125 182.64996337890625ZM5970.9000244140625 -8.45001220703125Q5943.2999267578125 -8.45001220703125 5935.9998779296875 13.774993896484375Q5928.6998291015625 36.0 5937.349792480469 84.14984130859375L5989.349792480469 377.84991455078125Q5992.6998291015625 394.54998779296875 6028.3001708984375 394.54998779296875Q6045.000244140625 394.54998779296875 6049.850280761719 392.3749694824219Q6054.7003173828125 390.199951171875 6054.7003173828125 387.64996337890625Q6054.7003173828125 384.199951171875 6049.7003173828125 361.64996337890625Q6044.7003173828125 339.0999755859375 6039.7003173828125 312.54998779296875L5998.7003173828125 89.54998779296875Q5989.150329589844 33.95013427734375 6015.350280761719 33.95013427734375Q6039.1002197265625 33.95013427734375 6080.050109863281 77.800048828125Q6084.050109863281 81.800048828125 6088.050109863281 77.57504272460938Q6092.050109863281 73.35003662109375 6088.5001220703125 69.35003662109375Q6054.150085449219 29.64996337890625 6025.975067138672 10.5999755859375Q5997.800048828125 -8.45001220703125 5970.9000244140625 -8.45001220703125ZM6188.649963378906 -8.0Q6172.949890136719 -8.0 6167.599853515625 -6.04998779296875Q6162.249816894531 -4.0999755859375 6162.249816894531 -1.0999755859375Q6162.249816894531 2.35003662109375 6167.749816894531 25.175018310546875Q6173.249816894531 48.0 6177.249816894531 74.0L6218.249816894531 297.0Q6227.7998046875 352.599853515625 6202.149841308594 352.599853515625Q6191.049865722656 352.599853515625 6174.074920654297 341.4998779296875Q6157.0999755859375 330.39990234375 6136.450012207031 308.74993896484375Q6133.450012207031 304.74993896484375 6129.175018310547 309.24993896484375Q6124.9000244140625 313.74993896484375 6128.450012207031 317.199951171875Q6162.800048828125 357.45001220703125 6191.525054931641 376.2250061035156Q6220.250061035156 395.0 6246.60009765625 395.0Q6273.650207519531 395.0 6281.175262451172 373.04998779296875Q6288.7003173828125 351.0999755859375 6279.600341796875 302.400146484375L6228.150329589844 8.7000732421875Q6224.80029296875 -8.0 6188.649963378906 -8.0ZM6227.250061035156 182.64996337890625 6230.800048828125 203.35003662109375H6466.2001953125L6463.2001953125 182.64996337890625ZM6443.9000244140625 -8.45001220703125Q6416.2999267578125 -8.45001220703125 6408.9998779296875 13.774993896484375Q6401.6998291015625 36.0 6410.349792480469 84.14984130859375L6462.349792480469 377.84991455078125Q6465.6998291015625 394.54998779296875 6501.3001708984375 394.54998779296875Q6518.000244140625 394.54998779296875 6522.850280761719 392.3749694824219Q6527.7003173828125 390.199951171875 6527.7003173828125 387.64996337890625Q6527.7003173828125 384.199951171875 6522.7003173828125 361.64996337890625Q6517.7003173828125 339.0999755859375 6512.7003173828125 312.54998779296875L6471.7003173828125 89.54998779296875Q6462.150329589844 33.95013427734375 6488.350280761719 33.95013427734375Q6512.1002197265625 33.95013427734375 6553.050109863281 77.800048828125Q6557.050109863281 81.800048828125 6561.050109863281 77.57504272460938Q6565.050109863281 73.35003662109375 6561.5001220703125 69.35003662109375Q6527.150085449219 29.64996337890625 6498.975067138672 10.5999755859375Q6470.800048828125 -8.45001220703125 6443.9000244140625 -8.45001220703125ZM6615.199951171875 -9.0Q6604.199951171875 -9.0 6590.199951171875 -7.0Q6576.199951171875 -5.0 6559.199951171875 -1.0Q6555.749938964844 0.0 6557.249938964844 5.5Q6558.749938964844 11.0 6562.749938964844 9.0Q6566.749938964844 8.0 6574.849914550781 8.0Q6595.39990234375 8.0 6609.224884033203 21.225006103515625Q6623.049865722656 34.45001220703125 6633.874847412109 55.04998779296875Q6644.6998291015625 75.64996337890625 6653.8997802734375 97.14984130859375Q6671.6998291015625 134.199951171875 6695.574920654297 154.82498168945312Q6719.450012207031 175.45001220703125 6747.550109863281 183.72500610351562Q6775.650207519531 192.0 6804.9002685546875 192.0L6809.9002685546875 188.0Q6754.350036621094 188.0 6719.0999755859375 202.12503051757812Q6683.849914550781 216.25006103515625 6669.349914550781 240.47506713867188Q6654.849914550781 264.7000732421875 6659.949890136719 294.45001220703125Q6666.049865722656 327.74993896484375 6693.549865722656 350.24993896484375Q6721.049865722656 372.74993896484375 6764.824859619141 384.3749694824219Q6808.599853515625 396.0 6862.149841308594 396.0Q6895.850158691406 396.0 6911.475311279297 394.7250061035156Q6927.1004638671875 393.45001220703125 6931.4005126953125 388.95001220703125Q6935.7005615234375 384.45001220703125 6933.7005615234375 375.0L6881.250549316406 89.0Q6871.7005615234375 33.400146484375 6897.800537109375 33.400146484375Q6907.9005126953125 33.400146484375 6925.150451660156 44.5001220703125Q6942.400390625 55.60009765625 6963.050354003906 77.25006103515625Q6966.5003662109375 81.25006103515625 6970.5003662109375 76.75006103515625Q6974.5003662109375 72.25006103515625 6971.050354003906 68.800048828125Q6936.150329589844 28.54998779296875 6908.2003173828125 9.774993896484375Q6880.250305175781 -9.0 6852.9002685546875 -9.0Q6825.850158691406 -9.0 6818.325103759766 12.95001220703125Q6810.800048828125 34.9000244140625 6819.9000244140625 83.599853515625L6862.350036621094 312.0Q6868.9000244140625 345.0 6869.575042724609 359.2749938964844Q6870.250061035156 373.54998779296875 6865.325103759766 377.04998779296875Q6860.400146484375 380.54998779296875 6848.1002197265625 380.54998779296875Q6790.600341796875 380.54998779296875 6761.0003662109375 358.800048828125Q6731.400390625 337.05010986328125 6725.950378417969 304.9000244140625Q6722.5003662109375 283.199951171875 6729.5003662109375 259.199951171875Q6736.5003662109375 235.199951171875 6757.825347900391 218.5999755859375Q6779.150329589844 202.0 6816.9002685546875 202.0Q6839.350280761719 202.0 6863.9002685546875 208.0L6857.9002685546875 191.0Q6813.80029296875 191.0 6789.075286865234 180.07492065429688Q6764.350280761719 169.14984130859375 6748.525299072266 144.47482299804688Q6732.7003173828125 119.7998046875 6713.3004150390625 78.0Q6703.150329589844 53.24981689453125 6691.750305175781 33.424835205078125Q6680.350280761719 13.599853515625 6662.6002197265625 2.2999267578125Q6644.850158691406 -9.0 6615.199951171875 -9.0Z"/></g>
</svg>